<mxfile host="app.diagrams.net" modified="2022-01-23T13:29:56.909Z" agent="5.0 (X11; Linux x86_64) AppleWebKit/537.36 (KHTML, like Gecko) Chrome/96.0.4664.175 Safari/537.36" etag="tsL6tmh_52i3NpuKuYyZ" version="16.4.5" type="github">
  <diagram id="WdiiQG18NFS0obzfnvU5" name="Page-1">
    <mxGraphModel dx="752" dy="425" grid="1" gridSize="10" guides="1" tooltips="1" connect="1" arrows="1" fold="1" page="1" pageScale="1" pageWidth="1200" pageHeight="1920" math="0" shadow="0">
      <root>
        <mxCell id="0" />
        <mxCell id="1" parent="0" />
      </root>
    </mxGraphModel>
  </diagram>
</mxfile>
